<svg id="Capa_1" xmlns="http://www.w3.org/2000/svg" x="0" y="0" viewBox="0 0 450 450" xml:space="preserve"><path d="M449.812 241.864a9.332 9.332 0 00-.551-1.758 9.38 9.38 0 00-.855-1.594 9.326 9.326 0 00-2.531-2.531 9.365 9.365 0 00-3.352-1.418 9.494 9.494 0 00-1.898-.188H412.5V65.625H75v131.25H0v187.5h262.5v-56.25H375v28.125c0 .647.074 1.276.199 1.887.125.61.302 1.209.539 1.77s.53 1.083.867 1.582a9.548 9.548 0 002.531 2.543c.499.337 1.033.618 1.594.855s1.148.426 1.758.551 1.24.188 1.887.188h56.25c.647 0 1.288-.063 1.898-.188s1.197-.314 1.758-.551 1.095-.518 1.594-.855.959-.724 1.383-1.148.811-.896 1.148-1.395.618-1.021.855-1.582.426-1.159.551-1.77c.125-.61.188-1.24.188-1.887v-112.5c0-.646-.063-1.275-.188-1.886zM225 365.626H18.75v-150H225v150zm11.25-75a7.5 7.5 0 1115 0 7.5 7.5 0 01-15 0zM375 309.376H262.5v-112.5H93.75v-112.5h300v150h-9.375c-.647 0-1.276.063-1.887.188s-1.197.314-1.758.551-1.095.53-1.594.867a9.326 9.326 0 00-2.531 2.532 9.365 9.365 0 00-.867 1.594 9.303 9.303 0 00-.539 1.758 9.385 9.385 0 00-.199 1.887v65.623zm65.628 37.5h-56.25v-93.75h56.25v93.75z" fill="#757575"/></svg>