<svg xmlns="http://www.w3.org/2000/svg"><path id="Cut" d="M.002 3.772c.15-.482.244-.99.459-1.443C1.253.661 3.105-.257 4.965.054c1.8.3 3.233 1.776 3.465 3.571.252 1.935-.73 3.616-2.633 4.484.041.035.072.071.111.093 1.007.578 2.019 1.151 3.023 1.736.159.094.259.026.381-.044L17.41 5.27c1.3-.742 2.598-1.486 3.902-2.222 1.25-.706 2.67-.392 3.514.766.27.372.224.588-.185.832l-7.196 4.281-2.542 1.515c-.074.043-.146.091-.243.152.083.055.145.1.211.138l9.725 5.607c.474.274.515.463.197.897-.818 1.114-2.267 1.416-3.484.721-3.909-2.228-7.819-4.453-11.718-6.698-.374-.216-.639-.232-1.01 0-.828.516-1.692.977-2.541 1.462-.082.047-.162.099-.273.169.639.266 1.183.615 1.613 1.112 1.071 1.238 1.39 2.65.845 4.19-.555 1.568-1.706 2.515-3.366 2.765-2.348.353-4.453-1.225-4.805-3.55-.009-.059-.034-.116-.052-.174v-.841c.018-.058.043-.114.052-.173.321-2.123 2.109-3.631 4.272-3.611a.792.792 0 00.372-.09c.762-.423 1.517-.856 2.274-1.287.409-.234.817-.47 1.251-.72-.062-.046-.093-.073-.128-.094C6.972 9.776 5.851 9.133 4.723 8.5a.953.953 0 00-.423-.102C2.527 8.351 1.212 7.565.428 5.982.218 5.559.14 5.071.002 4.613v-.841zm4.231 3.789a3.39 3.39 0 003.401-3.375C7.638 2.334 6.096.816 4.22.825 2.357.834.843 2.349.847 4.199c.004 1.85 1.531 3.366 3.386 3.362zm3.401 9.275c.024-1.827-1.481-3.359-3.33-3.39-1.879-.031-3.432 1.458-3.456 3.316a3.384 3.384 0 003.327 3.417 3.389 3.389 0 003.459-3.343zm2.311-6.34c.109.07.173.115.24.153 3.233 1.846 6.467 3.692 9.702 5.535.711.405 1.414.826 2.146 1.19.616.305 1.489.069 1.895-.449-.06-.037-.118-.076-.178-.111l-7.595-4.378c-1.533-.883-3.065-1.768-4.6-2.647-.079-.045-.215-.078-.284-.042-.435.229-.858.481-1.326.749zm2.272-1.292c.492.283.939.529 1.374.794.157.096.27.096.43 0 3.234-1.932 6.472-3.858 9.708-5.785.071-.043.138-.092.229-.152-.116-.092-.199-.171-.293-.233-.646-.42-1.299-.427-1.968-.044-2.964 1.695-5.931 3.387-8.897 5.081-.182.103-.362.21-.583.339z" fill="#757575"/></svg>