<svg viewBox="0 0 64 64" xmlns="http://www.w3.org/2000/svg"><g id="outline"><path d="M40.834 8.315a10 10 0 00-17.668 0L3.125 46.1a10 10 0 008.835 14.69h40.08a10 10 0 008.835-14.69zM58.9 54.914a7.936 7.936 0 01-6.86 3.876H11.96a8 8 0 01-7.068-11.748l20.04-37.79a8 8 0 0114.136 0l20.04 37.79a7.937 7.937 0 01-.208 7.872z"/><path d="M43.382 38.79l1.723 3.447a1 1 0 101.79-.894l-2-4a1 1 0 00-.9-.553H41v-1a3.968 3.968 0 00-.237-1.307l2.792-1.861A1 1 0 0044 31.79v-5a1 1 0 10-2 0v4.465l-2.347 1.564A3.971 3.971 0 0037 31.79v-3a5 5 0 00-10 0v3a3.971 3.971 0 00-2.653 1.029L22 31.255V26.79a1 1 0 00-2 0v5a1 1 0 00.445.832l2.792 1.861A3.968 3.968 0 0023 35.79v1h-3a1 1 0 00-.895.553l-2 4a1 1 0 001.79.894l1.723-3.447H23v5h-3a1 1 0 00-.895.553l-2 4a1 1 0 001.79.894l1.723-3.447h2.614a8.991 8.991 0 0017.536 0h2.614l1.723 3.447a1 1 0 001.79-.894l-2-4a1 1 0 00-.9-.553H41v-5zM29 28.79a3 3 0 016 0v3h-6zm-4 15v-8a2 2 0 012-2h4v8.228l-3.951 6.716A6.98 6.98 0 0125 43.79zm7 7a6.951 6.951 0 01-3.34-.85L32 44.262l3.34 5.678a6.951 6.951 0 01-3.34.85zm7-7a6.98 6.98 0 01-2.049 4.944L33 42.018V33.79h4a2 2 0 012 2z"/></g></svg>