<svg xmlns="http://www.w3.org/2000/svg"><g id="inte"><path class="fil0" fill="#757575" d="M673.786 541.183C524.665 639.289 437.063 786.23 417.295 962.718c215.902-283.2 491.053-404.581 510.142-412.776a15.928 15.928 0 017.311-1.765c8.836 0 16 7.165 16 16v21.219s-5.675 12.323-6.968 13.207l-.032-.02c-432.855 296-551.984 722.483-585.96 844.123-1.696 6.076-3.171 11.352-4.802 16.97-5.753 19.816-9.336 45.512-9.336 73.573 0 40.51 7.57 85.198 27.025 122.96 18.905 36.693 49.26 66.996 95.191 80.331 16.574 4.812 35.393 7.46 56.69 7.46 182.424 0 368.319-142.825 380.47-152.312 3.643-3.167 8.67-4.657 13.76-3.601l-3.251 15.666 3.25-15.625c.118.024 40.64 8.714 154.344 8.714 410.176 0 548.502-311.996 578.15-395.344h-396.462c-12.101 36.267-58.654 139.417-196.839 139.417-219.712 0-216.658-218.343-216.02-236.68-.008-.19-.011-.381-.011-.572 0-8.836 7.164-16 16-16h806.22c26.361-511.866-436.122-618.127-488.873-628.056-175.334-33.003-341.259-13.776-498.299 80.847l-1.21.728zm536.273-105.79c123.186 32.4 517.353 175.081 483.178 669.334l-15.938-1.063 15.962 1.103c-.583 8.445-7.62 14.902-15.962 14.895v.002H871.953c1.904 47.491 21.21 189.252 184.027 189.252 141.722 0 169.233-126.617 169.316-126.979l15.562 3.563-15.592-3.589c1.725-7.5 8.466-12.544 15.866-12.412h430.107c8.836 0 16 7.165 16 16 0 1.879-.324 3.681-.918 5.355-6.496 22.834-131.017 437.99-615.19 437.99-89.738 0-136.53-5.59-153.391-8.177-33.917 25.55-215.033 155.335-395.181 155.335-24.136 0-45.93-3.136-65.565-8.837-55.54-16.126-92.078-52.439-114.691-96.331-22.067-42.828-30.651-92.716-30.651-137.584 0-30.858 4.11-59.71 10.712-82.447 1.095-3.775 2.762-9.734 4.677-16.595 32.899-117.778 144.054-515.56 533.13-814.403-106.356 59.856-297.509 188.356-448.812 405.085l.055.038c-5.058 7.245-15.033 9.02-22.278 3.962-4.779-3.336-7.177-8.811-6.805-14.231-.283-22.91 1.105-326.28 274.114-500.286l-.036-.057c.374-.239.755-.458 1.14-.663 233.364-140.719 466.454-97.774 510.246-87.915 98.893-70.531 239.309-134.23 354.59-148.101 51.149-6.155 97.888-2.579 134.87 14.323 38.667 17.673 66.215 49.225 76.74 98.392 11.557 53.983 1.856 129.709-37.74 232.455-3.174 8.214-12.41 12.3-20.624 9.125-8.214-3.175-12.3-12.41-9.125-20.624 37.161-96.43 46.574-166.058 36.24-214.33-8.174-38.18-29.248-62.537-58.741-76.017-31.179-14.25-72.15-17.076-117.872-11.574-101.244 12.183-223.186 64.891-316.073 126.006zM1055.16 703.391c214.773 0 206.325 206.215 206.307 206.806l.054.047c-.262 8.67-7.377 15.519-15.992 15.514v.002H854.905c-8.836 0-16-7.164-16-16 0-.424.016-.846.05-1.261.01-18.331 5.222-205.108 216.205-205.108zm173.947 190.369c-3.23-42.653-25.638-158.368-173.947-158.368-153.991 0-179.403 115.463-183.535 158.368h357.482z"/><path class="fil0" d="M785.637 1702.34c-81.204 25.651-149.425 28.55-202.546 14.416-42.918-11.418-76.087-33.862-98.512-64.457-22.331-30.468-33.754-68.737-33.296-111.967.603-57.014 21.94-122.786 66.304-190.396l14.537-22.153 12.837 23.215c.28.504 94.476 175.247 373.843 237.717l-6.874 31.124c-232.164-51.914-343.885-179.792-380.66-231.362-32.087 54.757-47.632 106.874-48.11 152.105-.385 36.236 8.937 67.967 27.17 92.843 18.138 24.747 45.36 43.005 80.887 52.458 47.511 12.64 109.65 9.693 184.794-14.044l9.626 30.501z"/><path class="fil1" fill="transparent" d="M1662.17 1087.66c26.361-511.865-436.122-618.126-488.873-628.055-175.334-33.004-341.259-13.776-498.299 80.847l-1.21.728c-149.12 98.106-236.722 245.047-256.49 421.535C633.2 679.515 908.35 558.135 927.44 549.94a15.928 15.928 0 017.31-1.764c8.836 0 16.001 7.164 16.001 16v21.219s-5.675 12.322-6.969 13.207l-.031-.02c-432.855 296-551.984 722.483-585.96 844.123-1.696 6.075-3.172 11.351-4.803 16.97-5.753 19.815-9.335 45.511-9.335 73.572 0 40.51 7.57 85.199 27.025 122.96 18.904 36.693 49.26 66.997 95.19 80.331 16.575 4.812 35.393 7.46 56.691 7.46 41.45 0 83.078-7.373 122.808-18.88-22.603-.464-43.392-3.336-62.275-8.36-42.917-11.418-76.086-33.862-98.512-64.457-22.331-30.468-33.754-68.737-33.295-111.967.602-57.014 21.94-122.786 66.303-190.396l14.537-22.153L544.963 1351c.277.502 93.56 173.548 369.772 236.796a16.11 16.11 0 012.055.29l-.001.042c.118.023 40.639 8.714 154.344 8.714 410.176 0 548.502-311.996 578.15-395.344H1252.82c-12.102 36.267-58.655 139.417-196.84 139.417-219.711 0-216.657-218.343-216.02-236.68l-.011-.573c0-8.836 7.165-16 16-16h806.22zm-416.639-161.904zm-190.369-222.367c214.773 0 206.325 206.215 206.307 206.806l.054.047c-.262 8.67-7.377 15.519-15.992 15.516H854.907c-8.836 0-16-7.164-16-16 0-.424.016-.846.05-1.261.01-18.331 5.222-205.108 216.205-205.108z"/></g><rect class="fil2" fill="757575"/></svg>