<svg viewBox="0 0 1745.55 1776" xmlns="http://www.w3.org/2000/svg" xmlns:xlink="http://www.w3.org/1999/xlink"><style>:root&gt;svg{display:none}:root&gt;svg:target{display:block}</style><svg viewBox="0 0 450 450" id="adapt" xmlns="http://www.w3.org/2000/svg"><path d="M449.812 241.864a9.332 9.332 0 00-.551-1.758 9.38 9.38 0 00-.855-1.594 9.326 9.326 0 00-2.531-2.531 9.365 9.365 0 00-3.352-1.418 9.494 9.494 0 00-1.898-.188H412.5V65.625H75v131.25H0v187.5h262.5v-56.25H375v28.125c0 .647.074 1.276.199 1.887.125.61.302 1.209.539 1.77s.53 1.083.867 1.582a9.548 9.548 0 002.531 2.543c.499.337 1.033.618 1.594.855s1.148.426 1.758.551 1.24.188 1.887.188h56.25c.647 0 1.288-.063 1.898-.188s1.197-.314 1.758-.551 1.095-.518 1.594-.855.959-.724 1.383-1.148.811-.896 1.148-1.395.618-1.021.855-1.582.426-1.159.551-1.77c.125-.61.188-1.24.188-1.887v-112.5c0-.646-.063-1.275-.188-1.886zM225 365.626H18.75v-150H225v150zm11.25-75a7.5 7.5 0 1115 0 7.5 7.5 0 01-15 0zM375 309.376H262.5v-112.5H93.75v-112.5h300v150h-9.375c-.647 0-1.276.063-1.887.188s-1.197.314-1.758.551-1.095.53-1.594.867a9.326 9.326 0 00-2.531 2.532 9.365 9.365 0 00-.867 1.594 9.303 9.303 0 00-.539 1.758 9.385 9.385 0 00-.199 1.887v65.623zm65.628 37.5h-56.25v-93.75h56.25v93.75z" fill="#757575"/></svg><svg viewBox="0 0 200.814 200.814" id="arroba" xmlns="http://www.w3.org/2000/svg"><path d="M100.407 0C45.043 0 .001 45.042.001 100.406c0 55.366 45.042 100.409 100.406 100.409a7.5 7.5 0 007.5-7.5 7.5 7.5 0 00-7.5-7.5c-47.093 0-85.406-38.314-85.406-85.409C15.001 53.313 53.314 15 100.407 15s85.406 38.313 85.406 85.406v23.23c0 8.672-7.056 15.727-15.729 15.727-8.672 0-15.727-7.055-15.727-15.727v-23.23c0-29.75-24.202-53.953-53.951-53.953-29.75 0-53.953 24.203-53.953 53.953 0 29.752 24.203 53.957 53.953 53.957 16.511 0 31.305-7.463 41.209-19.185 4.572 11.238 15.607 19.185 28.469 19.185 16.943 0 30.729-13.784 30.729-30.727v-23.23C200.813 45.042 155.771 0 100.407 0zm0 139.363c-21.479 0-38.953-17.476-38.953-38.957 0-21.479 17.475-38.953 38.953-38.953s38.951 17.474 38.951 38.953c0 21.481-17.473 38.957-38.951 38.957z"/></svg><svg viewBox="0 0 512 512" id="brain" xmlns="http://www.w3.org/2000/svg"><path d="M306 83c-5.52 0-10 4.48-10 10s4.48 10 10 10 10-4.48 10-10-4.48-10-10-10zm-100 0c-5.52 0-10 4.48-10 10s4.48 10 10 10 10-4.48 10-10-4.48-10-10-10z"/><path d="M473.123 298.882C481.706 286 486 269.927 486 256c0-20.996-9.327-40.503-25.332-53.731C464.21 193.805 466 185.002 466 176c0-27.855-16.256-53.803-40.425-65.92 3.667-30.414-16.151-58.292-45.52-65.403C368.56 18.104 342.975 0 316 0c-25.11 0-47.631 14.646-60 36.016C243.63 14.646 221.109 0 196 0c-26.977 0-52.562 18.104-64.055 44.678-29.545 7.156-49.177 35.173-45.52 65.402C62.257 122.196 46 148.145 46 176c0 9.002 1.79 17.805 5.332 26.269C35.327 215.498 26 235.004 26 256c0 14 4.33 30.052 12.877 42.881C30.525 310.671 26 324.644 26 339c0 18.616 7.548 36.35 20.899 49.518C40.035 430.01 73.125 472 116 472c.31 0 .615-.005.914-.014C131.129 496.508 157.515 512 186 512c29.688 0 56.216-17.82 70-43.494C269.784 494.18 296.312 512 326 512c28.485 0 54.871-15.492 69.086-40.014.3.009.604.014.914.014 37.944 0 70-33.43 70-73 0-3.369-.296-6.834-.899-10.482C478.452 375.35 486 357.617 486 339c0-14.356-4.525-28.329-12.877-40.118zM246 151.381A39.741 39.741 0 00226 146c-5.523 0-10 4.477-10 10s4.477 10 10 10c11.028 0 20 8.972 20 20v190.169C231.329 359.528 209.877 349 186 349c-5.523 0-10 4.477-10 10s4.477 10 10 10c33.084 0 60 26.916 60 60 0 34.149-27.477 63-60 63-23.152 0-44.465-13.691-54.299-34.88a10.005 10.005 0 00-10.2-5.726c-.707.081-1.41.175-2.113.271-28.46 3.892-60.51-28.335-51.834-64.387a9.999 9.999 0 00-3.326-10.025C52.644 367.614 46 353.671 46 339c0-9.071 2.565-17.948 7.338-25.732C65.332 323.098 80.251 329 96 329c5.523 0 10-4.477 10-10s-4.477-10-10-10c-27.139 0-50-24.77-50-53 0-17.125 8.729-32.879 23.352-42.142a10 10 0 003.347-13.38C68.254 192.639 66 184.403 66 176c0-26.99 22.002-53 50-53 26.636 0 50 24.767 50 53 0 5.523 4.477 10 10 10s10-4.477 10-10c0-39.57-32.056-73-70-73-3.348 0-6.678.271-9.975.784-.005-.263-.025-.519-.025-.784 0-22.317 18.117-40 40-40 10.682 0 20.73 4.161 28.292 11.715 3.907 3.903 10.238 3.899 14.142-.007 3.903-3.908 3.9-10.239-.007-14.142-9.123-9.113-20.662-14.925-33.167-16.851C164.079 30.624 178.744 20 196 20c26.636 0 50 24.766 50 53v78.381zM416 329c15.75 0 30.669-5.903 42.663-15.729C463.435 321.054 466 329.93 466 339c0 14.671-6.644 28.614-18.227 38.253a9.997 9.997 0 00-3.326 10.025c1.06 4.403 1.553 8.128 1.553 11.721 0 31.04-28.075 56.126-53.387 52.666a92.449 92.449 0 00-2.114-.271 9.993 9.993 0 00-10.199 5.726C370.466 478.309 349.151 492 326 492c-32.523 0-60-28.851-60-63 0-33.084 26.916-60 60-60 5.522 0 10-4.477 10-10s-4.478-10-10-10c-23.877 0-45.329 10.528-60 27.169V186c0-11.028 8.972-20 20-20 5.522 0 10-4.477 10-10s-4.478-10-10-10a39.741 39.741 0 00-20 5.381V73c0-28.234 23.364-53 50-53 17.256 0 31.92 10.624 40.739 23.714-12.504 1.926-24.042 7.738-33.166 16.851-3.908 3.903-3.912 10.234-.009 14.142 3.903 3.908 10.236 3.911 14.142.008C345.271 67.161 355.318 63 366 63c21.993 0 40 17.787 40 40 0 .264-.02.521-.025.784A64.843 64.843 0 00396 103c-37.944 0-70 33.43-70 73 0 5.523 4.478 10 10 10s10-4.477 10-10c0-28.233 23.364-53 50-53 27.982 0 50 25.997 50 53 0 8.403-2.254 16.639-6.699 24.478a10 10 0 003.348 13.38C457.271 223.121 466 238.875 466 256c0 28.331-22.941 53-50 53-5.522 0-10 4.477-10 10s4.478 10 10 10z"/><path d="M223.453 214.053c-3.682-4.116-10.003-4.468-14.12-.786C177.265 241.952 126 219.027 126 176c0-5.523-4.477-10-10-10s-10 4.477-10 10c0 34.715 25.407 63.595 58.6 69.057C160.75 257.185 149.386 266 136 266c-5.523 0-10 4.477-10 10s4.477 10 10 10c24.357 0 44.69-17.51 49.102-40.602a69.883 69.883 0 0037.565-17.225c4.116-3.682 4.468-10.004.786-14.12zM116 389c-5.523 0-10 4.477-10 10s4.477 10 10 10c26.636 0 50 24.767 50 53 0 5.523 4.477 10 10 10s10-4.477 10-10c0-39.57-32.056-73-70-73zm80-80c-33.886 0-62.98 18.585-78.3 45.608-2.723 4.805-1.036 10.908 3.768 13.631 4.805 2.723 10.907 1.037 13.631-3.768C147.034 343.415 169.68 329 196 329c5.523 0 10-4.477 10-10s-4.477-10-10-10zm180-43c-13.386 0-24.75-8.815-28.6-20.943C380.593 239.595 406 210.715 406 176c0-5.523-4.478-10-10-10s-10 4.477-10 10c0 27.57-22.43 50-50 50a49.934 49.934 0 01-33.333-12.733c-4.115-3.682-10.438-3.331-14.12.786-3.683 4.116-3.33 10.438.786 14.12a69.886 69.886 0 0037.565 17.225C331.31 268.49 351.643 286 376 286c5.522 0 10-4.477 10-10s-4.478-10-10-10zm20 123c-37.944 0-70 33.43-70 73 0 5.523 4.478 10 10 10s10-4.477 10-10c0-28.233 23.364-53 50-53 5.522 0 10-4.477 10-10s-4.478-10-10-10zm-1.7-34.391C379.018 327.65 349.964 309 316 309c-5.522 0-10 4.477-10 10s4.478 10 10 10c26.301 0 48.964 14.411 60.899 35.471 2.727 4.811 8.834 6.489 13.631 3.769 4.805-2.723 6.492-8.826 3.77-13.631z"/></svg><svg viewBox="0 0 1690.42 1775.37" id="css" xmlns="http://www.w3.org/2000/svg"><path class="dfil0" d="M477.254 1614.22L359.129 289.37l-1.548-17.375H1690.42l-1.55 17.375L1570.617 1614l-.987 11.05-10.638 2.95-531.53 147.37h-8.5L488.88 1628.218l-10.641-2.954-.985-11.046zM392.429 304l115.59 1296.43 515.197 143.02 516.639-143.242 115.713-1296.2H392.428z" fill="#757575"/><path class="dfil0" d="M1021.03 1325.03l-182.503-48.487-10.793-2.867-1.02-11.132-10.509-114.853H685.052l20.228 226.527 318.52 88.193 318.623-88.342 41.28-472.996h-358.61l-6.436-30.562 382.12-169.872 11.66-135.55H633.962l11.558 130.247h405.767l6.25 30.687-26.193 11.225-369.006 157.935 11.94 136.138h566.663l-1.472 17.313-18.037 212.129-.942 11.074-10.746 2.988-180.4 50.144-8.313.062zm-163.583-76.493l167.574 44.52 165.476-45.995 15.624-183.741H644.968l-1.284-14.626-14.23-162.248-1.006-11.484 10.693-4.578 334.23-143.049H616.364l-1.298-14.625-14.399-162.247-1.541-17.375h848.163l-1.488 17.312-13.956 162.247-.808 9.385-8.693 3.865-322.067 143.175h318.332l-1.516 17.375-43.758 501.397-.963 11.026-10.726 2.974-333.596 92.493h-8.499l-333.41-92.316-10.638-2.946-.987-11.054-22.767-254.956-1.551-17.375H845.29l1.332 14.563 10.824 118.284z" fill="#757575"/><path class="dfil1" fill="transparent" d="M1025.09 533.091h422.197l-1.488 17.313-13.956 162.247-.808 9.385-8.693 3.864-322.067 143.175h318.331l-1.515 17.375-43.759 501.397-.962 11.026-10.726 2.974-333.596 92.493h-8.5l-333.41-92.316-10.637-2.945-.988-11.054-22.767-254.956-1.55-17.376h195.091l1.333 14.563 10.823 118.284 167.574 44.521 165.476-45.996 15.624-183.74H644.964l-1.284-14.626-14.23-162.248-1.006-11.484 10.694-4.578 334.229-143.05H616.36l-1.298-14.625-14.398-162.247-1.542-17.375h425.967zm-632.66-229.09l115.59 1296.43 515.197 143.02 516.638-143.242 115.714-1296.2H392.429z"/><path class="dfil2" fill="transparent" d="M1412.43 565.092H633.958l11.559 130.246h405.763l6.25 30.687-26.19 11.226-369.006 157.934 11.94 136.135h566.666l-1.47 17.32-18.04 212.12-.94 11.08-10.75 2.99-180.4 50.14-8.31.06-182.506-48.48-10.793-2.87-1.019-11.13-10.509-114.86H685.049l20.228 226.53 318.523 88.19 318.62-88.34 41.28-472.995h-358.61l-6.44-30.562 382.12-169.872z"/><rect class="dfil3"/></svg><svg viewBox="0 0 25.11 21.57" id="cut" xmlns="http://www.w3.org/2000/svg"><path d="M.002 3.772c.15-.482.244-.99.459-1.443C1.253.661 3.105-.257 4.965.054c1.8.3 3.233 1.776 3.465 3.571.252 1.935-.73 3.616-2.633 4.484.041.035.072.071.111.093 1.007.578 2.019 1.151 3.023 1.736.159.094.259.026.381-.044L17.41 5.27c1.3-.742 2.598-1.486 3.902-2.222 1.25-.706 2.67-.392 3.514.766.27.372.224.588-.185.832l-7.196 4.281-2.542 1.515c-.074.043-.146.091-.243.152.083.055.145.1.211.138l9.725 5.607c.474.274.515.463.197.897-.818 1.114-2.267 1.416-3.484.721-3.909-2.228-7.819-4.453-11.718-6.698-.374-.216-.639-.232-1.01 0-.828.516-1.692.977-2.541 1.462-.082.047-.162.099-.273.169.639.266 1.183.615 1.613 1.112 1.071 1.238 1.39 2.65.845 4.19-.555 1.568-1.706 2.515-3.366 2.765-2.348.353-4.453-1.225-4.805-3.55-.009-.059-.034-.116-.052-.174v-.841c.018-.058.043-.114.052-.173.321-2.123 2.109-3.631 4.272-3.611a.792.792 0 00.372-.09c.762-.423 1.517-.856 2.274-1.287.409-.234.817-.47 1.251-.72-.062-.046-.093-.073-.128-.094C6.972 9.776 5.851 9.133 4.723 8.5a.953.953 0 00-.423-.102C2.527 8.351 1.212 7.565.428 5.982.218 5.559.14 5.071.002 4.613v-.841zm4.231 3.789a3.39 3.39 0 003.401-3.375C7.638 2.334 6.096.816 4.22.825 2.357.834.843 2.349.847 4.199c.004 1.85 1.531 3.366 3.386 3.362zm3.401 9.275c.024-1.827-1.481-3.359-3.33-3.39-1.879-.031-3.432 1.458-3.456 3.316a3.384 3.384 0 003.327 3.417 3.389 3.389 0 003.459-3.343zm2.311-6.34c.109.07.173.115.24.153 3.233 1.846 6.467 3.692 9.702 5.535.711.405 1.414.826 2.146 1.19.616.305 1.489.069 1.895-.449-.06-.037-.118-.076-.178-.111l-7.595-4.378c-1.533-.883-3.065-1.768-4.6-2.647-.079-.045-.215-.078-.284-.042-.435.229-.858.481-1.326.749zm2.272-1.292c.492.283.939.529 1.374.794.157.096.27.096.43 0 3.234-1.932 6.472-3.858 9.708-5.785.071-.043.138-.092.229-.152-.116-.092-.199-.171-.293-.233-.646-.42-1.299-.427-1.968-.044-2.964 1.695-5.931 3.387-8.897 5.081-.182.103-.362.21-.583.339z" fill="#757575"/></svg><svg viewBox="0 0 64 64" id="danger" xmlns="http://www.w3.org/2000/svg"><path d="M40.834 8.315a10 10 0 00-17.668 0L3.125 46.1a10 10 0 008.835 14.69h40.08a10 10 0 008.835-14.69zM58.9 54.914a7.936 7.936 0 01-6.86 3.876H11.96a8 8 0 01-7.068-11.748l20.04-37.79a8 8 0 0114.136 0l20.04 37.79a7.937 7.937 0 01-.208 7.872z"/><path d="M43.382 38.79l1.723 3.447a1 1 0 101.79-.894l-2-4a1 1 0 00-.9-.553H41v-1a3.968 3.968 0 00-.237-1.307l2.792-1.861A1 1 0 0044 31.79v-5a1 1 0 10-2 0v4.465l-2.347 1.564A3.971 3.971 0 0037 31.79v-3a5 5 0 00-10 0v3a3.971 3.971 0 00-2.653 1.029L22 31.255V26.79a1 1 0 00-2 0v5a1 1 0 00.445.832l2.792 1.861A3.968 3.968 0 0023 35.79v1h-3a1 1 0 00-.895.553l-2 4a1 1 0 001.79.894l1.723-3.447H23v5h-3a1 1 0 00-.895.553l-2 4a1 1 0 001.79.894l1.723-3.447h2.614a8.991 8.991 0 0017.536 0h2.614l1.723 3.447a1 1 0 001.79-.894l-2-4a1 1 0 00-.9-.553H41v-5zM29 28.79a3 3 0 016 0v3h-6zm-4 15v-8a2 2 0 012-2h4v8.228l-3.951 6.716A6.98 6.98 0 0125 43.79zm7 7a6.951 6.951 0 01-3.34-.85L32 44.262l3.34 5.678a6.951 6.951 0 01-3.34.85zm7-7a6.98 6.98 0 01-2.049 4.944L33 42.018V33.79h4a2 2 0 012 2z"/></svg><svg viewBox="0 0 20.03 20.031" id="ellipse" xmlns="http://www.w3.org/2000/svg"><path d="M2.15 4.287a2.146 2.146 0 112.14-2.145 2.145 2.145 0 01-2.14 2.145zm0 7.869a2.146 2.146 0 112.14-2.147 2.146 2.146 0 01-2.14 2.147zm0 7.868a2.146 2.146 0 112.14-2.146 2.145 2.145 0 01-2.14 2.146zm7.86-15.737a2.146 2.146 0 112.15-2.145 2.143 2.143 0 01-2.15 2.145zm0 7.869a2.146 2.146 0 112.15-2.147 2.144 2.144 0 01-2.15 2.147zm0 7.868a2.146 2.146 0 112.15-2.146 2.143 2.143 0 01-2.15 2.146zm7.87-15.737a2.146 2.146 0 112.15-2.145 2.143 2.143 0 01-2.15 2.145zm0 7.869a2.146 2.146 0 112.15-2.147 2.144 2.144 0 01-2.15 2.147zm0 7.868a2.146 2.146 0 112.15-2.146 2.143 2.143 0 01-2.15 2.146z" fill="#fff" fill-rule="evenodd"/></svg><svg viewBox="0 0 15.28 15.281" id="find" xmlns="http://www.w3.org/2000/svg"><path id="hicon" d="M1547.7 72.076a.617.617 0 01.75.485 2.583 2.583 0 00.78 1.489 3.036 3.036 0 001.49.777.636.636 0 01.49.743.649.649 0 01-.72.515 4.21 4.21 0 01-2.14-1.13 4.164 4.164 0 01-1.13-2.136.6.6 0 01.48-.743zm3.28-6.076a6.267 6.267 0 016.28 6.257 6.136 6.136 0 01-.57 2.6l2.34 2.036c1.7 1.746.74 3.266.29 3.717-.42.454-1.99 1.414-3.73-.292l-2.06-2.35A6.261 6.261 0 111550.98 66zm5.55 13.517a1.352 1.352 0 001.88.226 1.313 1.313 0 00-.23-1.874l-2.16-1.88a6.236 6.236 0 01-1.37 1.34zm-5.55-2.312a4.948 4.948 0 10-4.97-4.948 4.963 4.963 0 004.97 4.943z" transform="translate(-1544.72 -66)" fill="#243f4d" fill-rule="evenodd"/></svg><svg viewBox="0 0 1690.4 1775.38" id="html5" xmlns="http://www.w3.org/2000/svg"><path class="ifil0" d="M477.276 1614.23L359.156 289.38l-1.548-17.375h1332.789l-1.55 17.375-118.248 1324.65-.987 11.05-10.638 2.95-531.515 147.354h-8.5l-530.055-147.148-10.641-2.956-.985-11.044zM392.456 304l115.585 1296.43 515.168 143.015 516.624-143.226 115.71-1296.22H392.453z" fill="#757575"/><path class="ifil0" d="M1023.44 1034.18h217.512l-1.555 17.375-18.86 210.738-1 11.16-10.75 2.902-169.346 45.71v.042l-11.876 3.173-.155.042h-8.248l-180.963-48.864-10.754-2.904-.997-11.158-10.264-114.966H685.065l20.23 226.707 317.91 88.26 318.446-88.265 1.46-16.398 38.19-427.784v-.063l2.38-26.19H794.416l-1.306-14.626-14.851-166.39-1.551-17.375h624.643l1.952-21.9 7.406-82.37 2.338-26.221H633.982l2.34 26.221 38.633 433.144h348.486zm.559 32H645.813l-1.305-14.625-39.937-447.769-3.89-43.597-1.55-17.375h848.765l-1.55 17.375-3.888 43.597-7.405 82.37-3.256 36.526-1.304 14.626H811.56l11.996 134.388H1418.6l-1.585 17.437-3.965 43.63h-.006l-38.182 427.72-2.445 27.449-.985 11.05-10.64 2.95-330.97 91.736-1.324.388-.747.22-8.75.063-332.846-92.408-10.64-2.953-.985-11.046-22.767-255.128-1.55-17.375h195.109l1.305 14.625 10.574 118.434 166.065 44.84 166.518-44.945 16.305-182.203h-182.092z" fill="#757575"/><path class="ifil1" fill="transparent" d="M1413.05 932.761zm-389.046-389.948h423.898l-1.55 17.375-3.888 43.597-7.406 82.37-3.256 36.526-1.304 14.625H811.565l11.996 134.388h595.044l-1.584 17.438-3.971 43.629-38.183 427.721-2.445 27.449-.985 11.049-10.64 2.95-330.97 91.737-1.323.388-.748.22-8.75.063-332.845-92.408-10.64-2.954-.986-11.045-22.767-255.128-1.55-17.375h195.11l1.304 14.625 10.575 118.434 166.065 44.84 166.518-44.945 16.305-182.203H645.817l-1.305-14.626-39.936-447.769-3.891-43.596-1.55-17.376h424.868zM392.459 304l115.585 1296.43 515.168 143.015 516.624-143.226 115.71-1296.22H392.456z"/><path class="ifil2" fill="transparent" d="M1413.05 574.813H633.984l2.34 26.222 38.633 433.145h565.993l-1.55 17.37-18.86 210.74-1 11.16-10.75 2.9-169.35 45.71v.05l-11.87 3.17-.16.04h-8.25l-180.959-48.86-10.754-2.91-.997-11.15-10.264-114.97H685.067l20.23 226.71 317.913 88.26 318.44-88.27 1.46-16.4 38.19-427.781v-.063l2.38-26.191H794.42l-1.307-14.625-14.851-166.39-1.551-17.375h624.639l1.96-21.9 7.4-82.37z"/><rect class="ifil3"/></svg><svg viewBox="0 0 1745.55 1776" id="inte" xmlns="http://www.w3.org/2000/svg"><path class="jfil0" fill="#757575" d="M673.786 541.183C524.665 639.289 437.063 786.23 417.295 962.718c215.902-283.2 491.053-404.581 510.142-412.776a15.928 15.928 0 017.311-1.765c8.836 0 16 7.165 16 16v21.219s-5.675 12.323-6.968 13.207l-.032-.02c-432.855 296-551.984 722.483-585.96 844.123-1.696 6.076-3.171 11.352-4.802 16.97-5.753 19.816-9.336 45.512-9.336 73.573 0 40.51 7.57 85.198 27.025 122.96 18.905 36.693 49.26 66.996 95.191 80.331 16.574 4.812 35.393 7.46 56.69 7.46 182.424 0 368.319-142.825 380.47-152.312 3.643-3.167 8.67-4.657 13.76-3.601l-3.251 15.666 3.25-15.625c.118.024 40.64 8.714 154.344 8.714 410.176 0 548.502-311.996 578.15-395.344h-396.462c-12.101 36.267-58.654 139.417-196.839 139.417-219.712 0-216.658-218.343-216.02-236.68-.008-.19-.011-.381-.011-.572 0-8.836 7.164-16 16-16h806.22c26.361-511.866-436.122-618.127-488.873-628.056-175.334-33.003-341.259-13.776-498.299 80.847l-1.21.728zm536.273-105.79c123.186 32.4 517.353 175.081 483.178 669.334l-15.938-1.063 15.962 1.103c-.583 8.445-7.62 14.902-15.962 14.895v.002H871.953c1.904 47.491 21.21 189.252 184.027 189.252 141.722 0 169.233-126.617 169.316-126.979l15.562 3.563-15.592-3.589c1.725-7.5 8.466-12.544 15.866-12.412h430.107c8.836 0 16 7.165 16 16 0 1.879-.324 3.681-.918 5.355-6.496 22.834-131.017 437.99-615.19 437.99-89.738 0-136.53-5.59-153.391-8.177-33.917 25.55-215.033 155.335-395.181 155.335-24.136 0-45.93-3.136-65.565-8.837-55.54-16.126-92.078-52.439-114.691-96.331-22.067-42.828-30.651-92.716-30.651-137.584 0-30.858 4.11-59.71 10.712-82.447 1.095-3.775 2.762-9.734 4.677-16.595 32.899-117.778 144.054-515.56 533.13-814.403-106.356 59.856-297.509 188.356-448.812 405.085l.055.038c-5.058 7.245-15.033 9.02-22.278 3.962-4.779-3.336-7.177-8.811-6.805-14.231-.283-22.91 1.105-326.28 274.114-500.286l-.036-.057c.374-.239.755-.458 1.14-.663 233.364-140.719 466.454-97.774 510.246-87.915 98.893-70.531 239.309-134.23 354.59-148.101 51.149-6.155 97.888-2.579 134.87 14.323 38.667 17.673 66.215 49.225 76.74 98.392 11.557 53.983 1.856 129.709-37.74 232.455-3.174 8.214-12.41 12.3-20.624 9.125-8.214-3.175-12.3-12.41-9.125-20.624 37.161-96.43 46.574-166.058 36.24-214.33-8.174-38.18-29.248-62.537-58.741-76.017-31.179-14.25-72.15-17.076-117.872-11.574-101.244 12.183-223.186 64.891-316.073 126.006zM1055.16 703.391c214.773 0 206.325 206.215 206.307 206.806l.054.047c-.262 8.67-7.377 15.519-15.992 15.514v.002H854.905c-8.836 0-16-7.164-16-16 0-.424.016-.846.05-1.261.01-18.331 5.222-205.108 216.205-205.108zm173.947 190.369c-3.23-42.653-25.638-158.368-173.947-158.368-153.991 0-179.403 115.463-183.535 158.368h357.482z"/><path class="jfil0" d="M785.637 1702.34c-81.204 25.651-149.425 28.55-202.546 14.416-42.918-11.418-76.087-33.862-98.512-64.457-22.331-30.468-33.754-68.737-33.296-111.967.603-57.014 21.94-122.786 66.304-190.396l14.537-22.153 12.837 23.215c.28.504 94.476 175.247 373.843 237.717l-6.874 31.124c-232.164-51.914-343.885-179.792-380.66-231.362-32.087 54.757-47.632 106.874-48.11 152.105-.385 36.236 8.937 67.967 27.17 92.843 18.138 24.747 45.36 43.005 80.887 52.458 47.511 12.64 109.65 9.693 184.794-14.044l9.626 30.501z"/><path class="jfil1" fill="transparent" d="M1662.17 1087.66c26.361-511.865-436.122-618.126-488.873-628.055-175.334-33.004-341.259-13.776-498.299 80.847l-1.21.728c-149.12 98.106-236.722 245.047-256.49 421.535C633.2 679.515 908.35 558.135 927.44 549.94a15.928 15.928 0 017.31-1.764c8.836 0 16.001 7.164 16.001 16v21.219s-5.675 12.322-6.969 13.207l-.031-.02c-432.855 296-551.984 722.483-585.96 844.123-1.696 6.075-3.172 11.351-4.803 16.97-5.753 19.815-9.335 45.511-9.335 73.572 0 40.51 7.57 85.199 27.025 122.96 18.904 36.693 49.26 66.997 95.19 80.331 16.575 4.812 35.393 7.46 56.691 7.46 41.45 0 83.078-7.373 122.808-18.88-22.603-.464-43.392-3.336-62.275-8.36-42.917-11.418-76.086-33.862-98.512-64.457-22.331-30.468-33.754-68.737-33.295-111.967.602-57.014 21.94-122.786 66.303-190.396l14.537-22.153L544.963 1351c.277.502 93.56 173.548 369.772 236.796a16.11 16.11 0 012.055.29l-.001.042c.118.023 40.639 8.714 154.344 8.714 410.176 0 548.502-311.996 578.15-395.344H1252.82c-12.102 36.267-58.655 139.417-196.84 139.417-219.711 0-216.657-218.343-216.02-236.68l-.011-.573c0-8.836 7.165-16 16-16h806.22zm-416.639-161.904zm-190.369-222.367c214.773 0 206.325 206.215 206.307 206.806l.054.047c-.262 8.67-7.377 15.519-15.992 15.516H854.907c-8.836 0-16-7.164-16-16 0-.424.016-.846.05-1.261.01-18.331 5.222-205.108 216.205-205.108z"/><rect class="jfil2" fill="757575"/></svg><svg data-name="Livello 1" viewBox="0 0 128 128" id="process" xmlns="http://www.w3.org/2000/svg"><path d="M64 39a25 25 0 1025 25 25 25 0 00-25-25zm0 44a19 19 0 1119-19 19 19 0 01-19 19z"/><path d="M121 48h-8.93a1 1 0 01-.94-.68 49.9 49.9 0 00-2-4.85 1 1 0 01.18-1.15l6.31-6.32a7 7 0 000-9.9l-12.73-12.72a7 7 0 00-9.9 0l-6.31 6.31a1 1 0 01-1.15.18 49.76 49.76 0 00-4.85-2 1 1 0 01-.68-.94V7a7 7 0 00-7-7H55a7 7 0 00-7 7v8.93a1 1 0 01-.68.94 49.9 49.9 0 00-4.85 2 1 1 0 01-1.15-.18L35 12.38a7 7 0 00-9.9 0L12.38 25.11a7 7 0 000 9.9l6.31 6.31a1 1 0 01.18 1.15 49.76 49.76 0 00-2 4.85 1 1 0 01-.94.68H7a7 7 0 00-7 7v18a7 7 0 007 7h8.93a1 1 0 01.94.68 49.9 49.9 0 002 4.85 1 1 0 01-.18 1.15L12.38 93a7 7 0 000 9.9l12.73 12.73a7 7 0 009.9 0l6.31-6.31a1 1 0 011.15-.18 49.76 49.76 0 004.85 2 1 1 0 01.68.94V121a7 7 0 007 7h18a7 7 0 007-7v-8.93a1 1 0 01.68-.94 49.9 49.9 0 004.85-2 1 1 0 011.15.18l6.32 6.31a7 7 0 009.9 0l12.73-12.73a7 7 0 000-9.9l-6.31-6.31a1 1 0 01-.18-1.15 49.76 49.76 0 002-4.85 1 1 0 01.94-.68H121a7 7 0 007-7V55a7 7 0 00-7-7zm1 25a1 1 0 01-1 1h-8.93a7 7 0 00-6.6 4.69 43.9 43.9 0 01-1.76 4.26 7 7 0 001.35 8l6.31 6.31a1 1 0 010 1.41l-12.72 12.71a1 1 0 01-1.41 0l-6.31-6.31a7 7 0 00-8-1.35 43.88 43.88 0 01-4.27 1.76 7 7 0 00-4.68 6.6V121a1 1 0 01-1 1H55a1 1 0 01-1-1v-8.93a7 7 0 00-4.69-6.6 43.9 43.9 0 01-4.26-1.76 7 7 0 00-8 1.35l-6.31 6.31a1 1 0 01-1.41 0L16.62 98.65a1 1 0 010-1.41l6.31-6.31a7 7 0 001.35-8 43.88 43.88 0 01-1.76-4.27A7 7 0 0015.93 74H7a1 1 0 01-1-1V55a1 1 0 011-1h8.93a7 7 0 006.6-4.69 43.9 43.9 0 011.76-4.26 7 7 0 00-1.35-8l-6.31-6.31a1 1 0 010-1.41l12.72-12.71a1 1 0 011.41 0l6.31 6.31a7 7 0 008 1.35 43.88 43.88 0 014.27-1.76A7 7 0 0054 15.93V7a1 1 0 011-1h18a1 1 0 011 1v8.93a7 7 0 004.69 6.6 43.9 43.9 0 014.26 1.76 7 7 0 008-1.35l6.31-6.31a1 1 0 011.41 0l12.73 12.73a1 1 0 010 1.41l-6.31 6.31a7 7 0 00-1.35 8 43.88 43.88 0 011.76 4.27 7 7 0 006.6 4.68h8.9a1 1 0 011 1z"/></svg></svg>